<svg xmlns="http://www.w3.org/2000/svg" viewBox="0 0 640 300">
  <rect width="100%" height="100%" fill="white"/>
  <g transform="translate(150, 160)">
    <path d="M -80,0 A 80,80 0 0 1 80,0" fill="none" stroke="#333" stroke-width="2"/>
    <path d="M -80,0 L -80,20" stroke="#333" stroke-width="2"/>
    <path d="M 80,0 L 80,20" stroke="#333" stroke-width="2"/>
    <line x1="-80" y1="20" x2="80" y2="20" stroke="#333" stroke-width="2"/>
    <circle cx="-60" cy="-40" r="3" fill="#3498db" />
    <circle cx="-30" cy="-60" r="3" fill="#3498db" />
    <circle cx="10" cy="-75" r="3" fill="#3498db" />
    <circle cx="50" cy="-60" r="3" fill="#3498db" />
    <circle cx="70" cy="-30" r="3" fill="#3498db" />
    <circle cx="-10" cy="-20" r="3" fill="#3498db" />
    <circle cx="30" cy="-10" r="3" fill="#3498db" />
    <circle cx="-50" cy="10" r="3" fill="#3498db" />
    <circle cx="0" cy="15" r="3" fill="#3498db" />
    <circle cx="-70" cy="-10" r="3" fill="#3498db" />
    <circle cx="60" cy="10" r="3" fill="#3498db" />
    <text x="0" y="50" font-family="Arial, sans-serif" font-size="14" text-anchor="middle" fill="#333">Uniform Sampling</text>
  </g>
  <g transform="translate(490, 160)">
    <path d="M -80,0 A 80,80 0 0 1 80,0" fill="none" stroke="#333" stroke-width="2"/>
    <path d="M -80,0 L -80,20" stroke="#333" stroke-width="2"/>
    <path d="M 80,0 L 80,20" stroke="#333" stroke-width="2"/>
    <line x1="-80" y1="20" x2="80" y2="20" stroke="#333" stroke-width="2"/>
    <circle cx="-10" cy="-75" r="3" fill="#e67e22" />
    <circle cx="10" cy="-70" r="3" fill="#e67e22" />
    <circle cx="30" cy="-65" r="3" fill="#e67e22" />
    <circle cx="-30" cy="-65" r="3" fill="#e67e22" />
    <circle cx="0" cy="-75" r="3" fill="#e67e22" />
    <circle cx="50" cy="-55" r="3" fill="#e67e22" />
    <circle cx="-50" cy="-55" r="3" fill="#e67e22" />
    <circle cx="15" cy="-40" r="3" fill="#e67e22" />
    <circle cx="-15" cy="-40" r="3" fill="#e67e22" />
    <circle cx="40" cy="-20" r="3" fill="#e67e22" />
    <circle cx="-40" cy="-20" r="3" fill="#e67e22" />
    <text x="0" y="50" font-family="Arial, sans-serif" font-size="14" text-anchor="middle" fill="#333">Importance Sampling</text>
  </g>
  <text x="320" y="30" font-family="Arial, sans-serif" font-weight="bold" font-size="18" text-anchor="middle" fill="#333">Sampling Distribution Comparison</text>
</svg>